<?xml version="1.0" encoding="utf-8"?>
<!-- Generator: Adobe Illustrator 28.0.0, SVG Export Plug-In . SVG Version: 6.00 Build 0)  -->
<svg version="1.1" id="Layer_1" xmlns="http://www.w3.org/2000/svg" xmlns:xlink="http://www.w3.org/1999/xlink" x="0px" y="0px"
	 viewBox="0 0 1184.2 254.5" style="enable-background:new 0 0 1184.2 254.5;" xml:space="preserve">
<style type="text/css">
	.st0{fill:#00213E;}
</style>
<g>
	<path class="st0" d="M117.8,48.2c17.1-14.1,34.7-27,54.4-36.6C183.7,6,195.4,1.3,208.4,1.2c15.8-0.2,25.2,8.9,25.8,24.8
		c0.5,11.9-2.5,23.1-6.5,34.1c-8.4,23-20.8,43.9-35,63.7c-2.2,3.1-2.2,5,0,8.1c15.4,22.4,29.4,45.7,36.8,72.2
		c2.1,7.5,3.4,15.3,3.5,23.1c0.4,19.8-12.2,30-31.8,26.8c-14.2-2.3-27.3-7.7-39.3-15.4c-13.7-8.8-26.9-18.4-40-28.2
		c-3.7-2.8-5.7-3.3-9.5-0.1c-18.8,15.6-38.6,29.8-61.7,38.3c-8.1,3-17,5-25.6,5.5c-15,0.8-24.2-8.6-25.1-23.7
		c-0.7-11.4,2-22.2,5.7-32.7c8.3-23.8,21-45.3,35.5-65.6c2.8-3.9,2.5-6.2-0.1-9.9C25.8,99.8,12,76.6,4.7,50.3
		c-2-7.3-3.4-15-3.5-22.6C0.8,7.4,13.4-2.8,33.6,0.7c14.5,2.5,27.6,8.5,40.1,16c7.7,4.6,15.2,9.6,22.5,14.8
		C103.5,36.7,110.4,42.4,117.8,48.2z M53.8,141.2c-12.1,12.9-32.3,52.2-36.6,72.4c-1.2,5.8-1.7,11.9-1.3,17.7c0.4,5.9,3.1,8.2,9,7.5
		c6.9-0.7,13.9-2.1,20.3-4.5c18.4-6.8,34.5-17.9,50-29.8c3.4-2.6,6.7-5.3,9.6-7.7C87.7,178.2,70.9,159.8,53.8,141.2z M171.7,128.7
		c-16.9-22.2-34.5-41.9-53.9-59.7c-0.9,0.6-1.4,0.8-1.7,1.2c-16.7,18-33.4,36.1-50.2,54.1c-2.4,2.6-1.3,4.4,0.5,6.4
		c15.9,17.5,31.7,35,47.6,52.5c1,1.1,2.2,1.9,4.4,3.6C136.3,167.3,154,148,171.7,128.7z M53.7,113.4C71,94.8,88,76.5,105.3,57.9
		C85.8,42,65.5,26.5,40.8,18.2c-4.8-1.6-10-2.3-15.1-2.7c-5-0.4-8.6,2.1-8.8,7.3c-0.2,5.8-0.2,11.7,1,17.3C23,63.5,34.7,84,47.4,104
		C49.5,107.3,51.8,110.6,53.7,113.4z M130,58c17.1,18.8,34,37.3,51.1,56c14.6-21.3,28.3-43.5,35.2-69.1c1.6-6,2.5-12.5,2.4-18.7
		c-0.1-7.7-3.2-10.3-10.7-9.8c-4.6,0.3-9.3,1.2-13.7,2.6C169.7,27.3,149.4,42.5,130,58z M129.6,197.1c18.4,15.1,37.7,29.7,60.9,38.1
		c5.8,2.1,12.2,3,18.4,3.8c4.7,0.6,8.3-2.1,8.4-7.1c0.2-5.8,0.3-11.7-0.9-17.3c-4.5-21.1-14.6-39.9-25.7-58.1
		c-3.2-5.2-6.6-10.2-9.7-14.9C163.7,160.2,146.8,178.5,129.6,197.1z"/>
	<path class="st0" d="M511.1,160.6c-15.4,11.4-31.6,10.7-47.6,6.3c-11.8-3.2-16.3-13.3-16.9-24.6c-0.6-11.3-0.6-22.7,0.6-33.9
		c1.6-15.1,11.2-23.4,26.4-24.1c7.6-0.4,15.4-0.6,23,0.1c4.9,0.5,9.7,2.9,13.7,4.2c2.5-1.4,5-3.8,7.8-4.3c4.8-0.8,7,1.4,7.7,6.2
		c0,0.2,0.1,0.3,0.1,0.5c-0.2,31,0,61.9-0.7,92.9c-0.2,11.2-8,17.9-19.3,18.3c-13.1,0.4-26.3,0.3-39.5,0
		c-10.2-0.2-17.8-6.7-19.3-15.6c-0.6-3.7,0-6.8,3.9-8c3.8-1.1,7.6-0.7,9.2,3.6c1.6,4.5,4.7,5.7,8.8,5.7c11.2,0,22.3,0.2,33.5,0
		c7.1-0.2,8.6-2,8.6-9.2C511.2,172.9,511.1,167.1,511.1,160.6z M511.1,126.3c0-5.2,0-10.3,0-15.5c-0.1-7.1-2.8-10.9-9.8-11.4
		c-9.7-0.7-19.6-0.6-29.3-0.1c-6.7,0.4-10.4,4.2-10.7,11c-0.4,11-0.3,21.9,0,32.9c0.1,4.7,2.3,9,7.4,10.1
		c12.4,2.8,24.7,2.6,36.7-2.1c3.9-1.5,5.9-4.6,5.7-9C511,137,511.1,131.7,511.1,126.3z"/>
	<path class="st0" d="M867.8,169.4c0,8.7,0.1,16.8,0,24.9c-0.1,6-3,8.9-8.3,7.8c-2.3-0.5-4.1-3.1-6-4.9c-0.3-0.3-0.2-1-0.2-1.4
		c0-35-0.1-70,0.2-104.9c0-2.2,2.5-5.6,4.5-6.2c2.4-0.7,5.7,0.5,8.1,1.8c1.4,0.7,1.7,3.4,2.5,5.2c13.9-9.9,29.3-9,44.7-5.9
		c10.7,2.2,17.5,10,18.3,20.6c1.1,13.5,1.5,27.3-0.1,40.8c-1.7,14.2-12.1,21.7-27.1,22.1c-10.2,0.3-20.3,0.1-30.5,0.2
		C872,169.4,870.3,169.4,867.8,169.4z M868.3,154.5c12.6,0,24.8,0.5,37.1-0.2c8.7-0.4,12.2-4.4,12.6-13.1c0.4-9.6,0.4-19.3,0-29
		c-0.2-5.5-1.9-11-8.2-12.4c-12.1-2.6-24.1-2.3-35.8,2c-4.1,1.5-6.2,4.6-6.1,9.3c0.2,13.2,0,26.3,0.1,39.5
		C867.9,152,868.1,153.2,868.3,154.5z"/>
	<path class="st0" d="M973.7,133.4c0.3,4.4,0.2,8.2,0.9,11.9c0.9,5.2,4.4,8.5,9.6,8.7c10.4,0.4,20.9,0.3,31.4-0.1
		c3.8-0.1,6.8-2.4,8.2-6.4c0.3-0.9,0.7-1.9,1.3-2.7c2.4-3.7,5.9-4,9.7-2.7c3.9,1.4,3.9,4.6,3.2,7.9c-2.4,10.2-9.2,16.7-19.2,17.8
		c-11.5,1.3-23.3,1.9-34.8,0.8c-14.6-1.4-22.3-9.3-23.7-23.9c-1.1-11.9-1.2-24,0-35.8c1.4-14.8,8.8-22.5,23.5-24.1
		c10.8-1.2,22-0.9,32.8,0.5c12.8,1.6,20.1,10.3,21.7,23.2c0.6,5.3,0.8,10.6,0.8,16c0,6.9-2.1,8.9-9,8.9c-16.5,0.1-33,0-49.5,0
		C978.5,133.4,976.7,133.4,973.7,133.4z M1023.6,117.9c1.7-12.5-2.3-18.1-14.1-19.1c-7.1-0.6-14.3-0.6-21.4,0.1
		c-11.4,1-15.6,7.3-13.5,19C990.9,117.9,1007.3,117.9,1023.6,117.9z"/>
	<path class="st0" d="M328,56.1c4.4-0.4,6.5,2.6,8.1,6.4c8.7,21.2,17.4,42.4,26.2,63.6c4.4,10.8,8.9,21.5,13.2,32.3
		c2.5,6.4-0.6,11.4-6.9,10.7c-2.3-0.3-5.1-2.5-6.2-4.6c-3-5.7-4.9-12-7.7-17.8c-0.7-1.5-3-3.1-4.6-3.2c-14.8-0.2-29.6-0.1-44.4-0.2
		c-2.9,0-4.1,1.1-5.1,3.6c-2.2,5.7-4.5,11.5-6.8,17.1c-2.2,5.1-5.2,6.5-9.8,4.7c-4.5-1.8-5.8-5-3.7-10.2
		c12.9-31.9,25.9-63.7,38.8-95.6C320.6,59,322.9,56,328,56.1z M347.5,128.8c-6.7-16.4-13.3-32.3-20.4-49.5
		c-6.8,17.3-13,33.2-19.3,49.5C321.3,128.8,334,128.8,347.5,128.8z"/>
	<path class="st0" d="M679.2,70.4c0,11.6,0,22.7,0,34.6c3.3,0,6.6,0,9.8,0c7.7,0,15.3,0,23,0c4.6,0,6.6,2.7,6.9,6.9
		c0.3,4.3-2.4,7.3-6.9,7.3c-9,0.2-18,0.1-27,0.1c-1.8,0-3.6,0-5.8,0c0,12,0,23.6,0,35.6c2.1,0,3.9,0,5.7,0c15.2,0,30.3,0,45.5,0
		c5.7,0,8,2.3,8,7.2c0,4.8-2.3,7.1-7.6,7.1c-19.7,0.1-39.3,0.1-59,0c-5.4,0-7.7-2.3-7.7-7.6c-0.1-32.7-0.1-65.3,0-98
		c0-5.4,2.4-7.6,7.7-7.6c19.7-0.1,39.3-0.1,59,0c5.2,0,7.6,2.3,7.6,7.1c0,4.8-2.3,7.1-7.5,7.2c-15.3,0.1-30.7,0-46,0
		C683.1,70.4,681.3,70.4,679.2,70.4z"/>
	<path class="st0" d="M594.1,83.8c5.6,0.4,11.3,0.4,16.9,1.3c12.3,1.9,20.4,9.4,21.5,21.6c1.3,13.3,1.3,27,0,40.3
		c-1.1,12.2-9.2,20.1-21.6,21.4c-10.7,1.1-21.7,1.6-32.3,0.4c-15.2-1.7-22.5-9.8-24-26c-1-11.4-0.7-23,0.5-34.4
		c1.6-15,11.3-23.3,26.5-24.1c4.2-0.2,8.3,0,12.5,0C594.1,84.1,594.1,83.9,594.1,83.8z M569.2,126.5
		C569.2,126.5,569.2,126.5,569.2,126.5c0,5.3-0.3,10.7,0,16c0.5,7.3,3.8,11.2,11.1,11.7c8.6,0.6,17.3,0.8,25.9,0.2
		c8.8-0.6,12.3-4.3,12.7-13c0.4-9.8,0.4-19.6,0-29.4c-0.4-8.5-3.9-12.3-12.3-12.8c-8.8-0.6-17.6-0.4-26.4,0.1
		c-7,0.5-10.5,4.3-11,11.3C568.9,115.9,569.2,121.2,569.2,126.5z"/>
	<path class="st0" d="M792.3,135c-7.5,10.6-14.5,20.7-21.7,30.6c-3.6,5-9,5-12.4,0.3c-2.4-3.3-1.2-6.2,0.9-9.2
		c7-9.9,14-19.9,21-29.8c1-1.4,1.9-2.7,2.9-4.2c-6.5-8.6-13-17-19.4-25.5c-3.7-4.9-3.6-8.2,0.4-11.2c4.2-3.2,7.4-2.5,11.3,2.6
		c5.9,7.6,11.7,15.3,18,23.6c5.2-6.8,10-13.2,14.9-19.7c1.2-1.6,2.4-3.2,3.6-4.8c3.2-4.1,6.5-4.7,10.3-2c3.8,2.8,4.4,6.6,1.3,10.8
		c-5.8,7.9-11.7,15.8-17.9,23.4c-2.6,3.2-2.7,5.2,0,8.5c7.5,9.3,14.7,18.9,21.9,28.5c3.3,4.4,2.8,7.9-1.1,10.8
		c-3.6,2.7-7.1,2.1-10.3-2C808.2,155.8,800.5,145.7,792.3,135z"/>
	<path class="st0" d="M1159.2,84.1c5.5,0,11.4,0,17.4,0c5.5,0.1,7.6,2,7.7,6.9c0.1,5.1-2.2,7.3-7.8,7.4c-5.8,0.1-11.6,0-17.9,0
		c-0.1,1.9-0.3,3.5-0.3,5c0,11,0,22,0,33c0,14.2,3.2,17.6,17.4,18.5c6,0.4,8,2.5,7.6,8c-0.3,4-2.3,6.2-6.3,6.3
		c-17.6,0.7-32.3-6.1-33-28.5c-0.4-12.2-0.2-24.3-0.2-36.5c0-1.8,0-3.6,0-5.3c-6.1-1.7-15.4,2.6-15-8.1c0.3-10.1,9.1-5.4,15.1-7.3
		c0-3.5-0.1-7.2,0-11c0.2-5.3,2.4-7.5,7.3-7.4c4.8,0,6.9,2.3,7.1,7.6c0.1,3.5,0.1,7,0.2,10.5C1158.4,83.4,1158.6,83.5,1159.2,84.1z"
		/>
	<path class="st0" d="M397.1,102.5c0-14.3,0-28.6,0-42.9c0-6.2,2.9-9.3,8.4-8.1c2.2,0.5,4.5,2.9,5.7,5c1,1.7,0.6,4.2,0.6,6.4
		c0,25.8,0,51.6,0,77.4c0,2.5,0.1,5,0.2,7.5c0.2,4.1,2.3,6.5,6.4,6.9c1.8,0.2,3.6,0.4,5.5,0.6c4.7,0.4,6.2,3.4,6.1,7.6
		c-0.1,4.1-2.3,6.4-6.5,6.7c-16.1,1.2-26.1-7.7-26.4-24C397,131.1,397.2,116.8,397.1,102.5C397.2,102.5,397.1,102.5,397.1,102.5z"/>
	<path class="st0" d="M1084.2,95.9c6-5.9,12.4-10,20.2-11.1c2.9-0.4,6-0.7,8.9-0.7c4.8,0,7.2,2.4,7.4,6.9c0.1,4.5-2.2,6.8-6.9,7.4
		c-5.6,0.7-11.3,1.1-16.6,2.8c-9.4,3-13.2,9-13.3,18.7c-0.1,13.3,0.2,26.7-0.2,40c-0.1,2.9-1.5,6.9-3.7,8.5
		c-4.7,3.4-10.8-0.2-10.8-6.2c-0.1-23.6-0.1-47.3,0-70.9c0-4.9,2.4-7,7.1-7.1c4.8-0.2,7.1,2.2,7.5,6.7
		C1083.9,92.3,1084,93.7,1084.2,95.9z"/>
	<path class="st0" d="M141.2,127.9c0,13.5-10.9,24.4-24.5,24.5c-13.7,0.1-24.8-11-24.7-24.7c0.1-13.7,11.2-24.6,25-24.5
		C130.4,103.3,141.3,114.3,141.2,127.9z M116.5,137.1c4.9,0.1,9.3-4,9.5-9c0.2-5.1-4.1-9.7-9.2-9.8c-5.1-0.1-9.6,4.3-9.5,9.5
		C107.3,132.7,111.6,137,116.5,137.1z"/>
</g>
</svg>
