<?xml version="1.0" encoding="utf-8"?>
<!-- Generator: Adobe Illustrator 28.0.0, SVG Export Plug-In . SVG Version: 6.00 Build 0)  -->
<svg version="1.1" id="Layer_1" xmlns="http://www.w3.org/2000/svg" xmlns:xlink="http://www.w3.org/1999/xlink" x="0px" y="0px"
	 viewBox="0 0 25 25" style="enable-background:new 0 0 25 25;" xml:space="preserve" overflow="visible" width="25px" height="25px">
<style type="text/css">
	.st0{fill:#008000;}
	.st1{fill:#FDFEFD;}
</style>
<g>
	<path class="st0" d="M0,12.5c0-3.19,0-6.39,0-9.58C0,1.16,1.16,0,2.92,0c6.39,0,12.77,0,19.16,0C23.84,0,25,1.16,25,2.92
		c0,6.39,0,12.77,0,19.16c0,1.76-1.15,2.92-2.92,2.92c-6.39,0-12.77,0-19.16,0C1.16,25,0,23.84,0,22.08C0,18.89,0,15.69,0,12.5z
		 M11.4,21.74c1.17-3.05,2.27-5.93,4.02-8.5c1.76-2.58,3.89-4.84,6.16-6.97c-0.57-0.95-1.12-1.86-1.7-2.82
		c-3.62,3.51-7.26,6.89-9.58,11.45c-1.61-1.43-3.18-2.83-4.78-4.26c-0.64,1.1-1.23,2.12-1.86,3.19C6.51,16.16,9.21,18.58,11.4,21.74
		z"/>
	<path class="st1" d="M11.4,21.74c-2.18-3.16-4.89-5.58-7.74-7.92c0.62-1.07,1.22-2.09,1.86-3.19c1.6,1.43,3.17,2.82,4.78,4.26
		c2.32-4.55,5.96-7.94,9.58-11.45c0.58,0.97,1.13,1.88,1.7,2.82c-2.27,2.14-4.4,4.39-6.16,6.97C13.66,15.81,12.56,18.69,11.4,21.74z
		"/>
</g>
</svg>
