<?xml version="1.0" encoding="utf-8"?>
<!-- Generator: Adobe Illustrator 28.0.0, SVG Export Plug-In . SVG Version: 6.00 Build 0)  -->
<svg version="1.1" id="Layer_1" xmlns="http://www.w3.org/2000/svg" xmlns:xlink="http://www.w3.org/1999/xlink" x="0px" y="0px"
	 viewBox="0 0 206.15 206.14" style="enable-background:new 0 0 206.15 206.14;" xml:space="preserve" width="25px" height="25px">
<style type="text/css">
	.st0{fill:#008000;}
	.st1{fill:#FDFEFD;}
</style>
<g>
	<path class="st0" d="M0.01,103.07c0-26.33-0.01-52.66,0.01-78.99C0.03,9.53,9.54,0.02,24.08,0.01C76.75,0,129.41,0,182.07,0.01
		c14.55,0,24.06,9.52,24.06,24.06c0.02,52.66,0.02,105.33,0,157.99c0,14.55-9.52,24.06-24.07,24.06
		c-52.66,0.02-105.33,0.02-157.99,0c-14.54,0-24.07-9.55-24.07-24.07C-0.01,155.73,0,129.4,0.01,103.07z M93.98,179.25
		c9.62-25.18,18.68-48.92,33.14-70.09c14.54-21.29,32.11-39.88,50.82-57.5c-4.71-7.82-9.24-15.33-14.04-23.29
		c-29.85,28.91-59.88,56.84-79.02,94.4C71.6,110.95,58.65,99.41,45.47,87.67c-5.27,9.03-10.18,17.45-15.32,26.27
		C53.68,133.21,75.96,153.23,93.98,179.25z"/>
	<path class="st1" d="M93.98,179.25c-18.01-26.02-40.3-46.04-63.83-65.32c5.14-8.81,10.05-17.23,15.32-26.27
		c13.19,11.75,26.13,23.28,39.41,35.11c19.15-37.55,49.18-65.49,79.02-94.4c4.8,7.96,9.33,15.47,14.04,23.29
		c-18.71,17.62-36.28,36.21-50.82,57.5C112.66,130.34,103.59,154.07,93.98,179.25z"/>
</g>
</svg>
