<?xml version="1.0" encoding="utf-8"?>
<!-- Generator: Adobe Illustrator 28.0.0, SVG Export Plug-In . SVG Version: 6.00 Build 0)  -->
<svg version="1.1" id="Layer_1" xmlns="http://www.w3.org/2000/svg" xmlns:xlink="http://www.w3.org/1999/xlink" x="0px" y="0px"
	 viewBox="0 0 25 25" style="enable-background:new 0 0 25 25;" xml:space="preserve" width="25px" height="25px">
<style type="text/css">
	.st0{fill:#8BC24A;}
	.st1{fill:#44A048;}
	.st2{fill:#AED583;}
	.st3{fill:#9DCC67;}
	.st4{fill:#8BC34A;}
	.st5{fill:#DCECC8;}
	.st6{fill:#C5E0A5;}
	.st7{fill:#8AC249;}
</style>
<g>
	<path class="st0" d="M11.3,2.6C11.2,1.8,11.1,1,11,0.1c4.5-0.6,8.2,1,11.1,4.4c2.4,2.8,3.3,6.1,2.8,9.6c-1.1,8-8.6,11.7-13.8,10.7
		c0.1-0.8,0.2-1.6,0.3-2.4c3.7,0.1,6.9-1,9.1-4.1c2.4-3.3,2.7-6.9,0.7-10.5C19.1,4,15.7,2.4,11.3,2.6z"/>
	<path class="st1" d="M11.1,17.7c-1.7-1.7-3.4-3.4-5-5.1c0.6-0.6,1.2-1.2,1.9-1.8c1,1,2,2.1,3,3.1c2.1-2.1,4-4.1,6-6.1
		c0.7,0.8,1.3,1.4,1.9,2.1C16.3,12.4,13.7,15,11.1,17.7z"/>
	<path class="st2" d="M0,11.1c0.2-0.9,0.4-1.8,0.6-2.7c0.9,0.3,1.7,0.6,2.5,0.9C3,9.9,2.8,10.6,2.6,11.4C1.8,11.3,1,11.2,0,11.1z"/>
	<path class="st3" d="M3.1,15.7c-0.8,0.3-1.6,0.6-2.5,0.9c-0.2-0.9-0.4-1.8-0.6-2.7c0.9-0.1,1.8-0.2,2.6-0.3C2.8,14.4,3,15,3.1,15.7
		z"/>
	<path class="st4" d="M8.3,24.3c-0.9-0.4-1.7-0.8-2.5-1.2c0.5-0.8,0.9-1.5,1.4-2.2c0.6,0.3,1.3,0.6,2,1C8.9,22.7,8.6,23.4,8.3,24.3z
		"/>
	<path class="st5" d="M8.3,0.6c0.3,0.9,0.6,1.7,0.8,2.5c-0.7,0.4-1.3,0.7-1.9,1C6.7,3.4,6.3,2.7,5.8,1.9C6.6,1.5,7.4,1.1,8.3,0.6z"
		/>
	<path class="st6" d="M3.6,3.7c0.6,0.7,1.2,1.2,1.8,1.9C5,6,4.6,6.6,4.1,7.2C3.4,6.8,2.6,6.3,1.8,5.8C2.4,5.1,3,4.4,3.6,3.7z"/>
	<path class="st7" d="M3.5,21.2c-0.5-0.6-1-1.3-1.7-2.1c0.8-0.5,1.5-1,2.2-1.4c0.4,0.6,0.9,1.1,1.3,1.7C4.8,20,4.2,20.6,3.5,21.2z"
		/>
</g>
</svg>
