<?xml version="1.0" encoding="utf-8"?>
<!-- Generator: Adobe Illustrator 28.0.0, SVG Export Plug-In . SVG Version: 6.00 Build 0)  -->
<svg version="1.1" id="Layer_1" xmlns="http://www.w3.org/2000/svg" xmlns:xlink="http://www.w3.org/1999/xlink" x="0px" y="0px"
	 viewBox="0 0 25 24.92" style="enable-background:new 0 0 25 24.92;" xml:space="preserve"  width="25px">
<style type="text/css">
	.st0{fill:#8BC24A;}
	.st1{fill:#44A048;}
	.st2{fill:#AED583;}
	.st3{fill:#9DCC67;}
	.st4{fill:#8BC34A;}
	.st5{fill:#DCECC8;}
	.st6{fill:#C5E0A5;}
	.st7{fill:#8AC249;}
</style>
<g>
	<path class="st0" d="M11.34,2.57c-0.11-0.82-0.21-1.62-0.31-2.44c4.53-0.6,8.19,0.99,11.08,4.37c2.36,2.76,3.26,6.04,2.76,9.61
		c-1.11,7.94-8.56,11.64-13.84,10.67c0.1-0.8,0.2-1.61,0.3-2.38c3.7,0.05,6.88-1.04,9.08-4.1c2.38-3.31,2.69-6.91,0.75-10.5
		C19.1,3.97,15.71,2.4,11.34,2.57z"/>
	<path class="st1" d="M11.07,17.62c-1.69-1.69-3.38-3.38-5.04-5.04c0.61-0.6,1.22-1.19,1.86-1.82c0.97,1,1.99,2.05,3,3.09
		c2.06-2.07,4.05-4.07,6.05-6.08c0.72,0.78,1.32,1.44,1.9,2.07C16.33,12.34,13.72,14.97,11.07,17.62z"/>
	<path class="st2" d="M0.01,11.04c0.21-0.93,0.4-1.75,0.62-2.72c0.9,0.31,1.69,0.58,2.49,0.85c-0.17,0.74-0.32,1.41-0.48,2.16
		C1.82,11.24,0.98,11.15,0.01,11.04z"/>
	<path class="st3" d="M3.13,15.69c-0.8,0.28-1.58,0.56-2.48,0.87c-0.21-0.9-0.42-1.76-0.65-2.72c0.93-0.1,1.77-0.19,2.63-0.28
		C2.8,14.31,2.96,14.97,3.13,15.69z"/>
	<path class="st4" d="M8.28,24.26c-0.87-0.43-1.67-0.82-2.51-1.23c0.5-0.78,0.94-1.49,1.41-2.22c0.65,0.32,1.26,0.62,1.97,0.97
		C8.88,22.58,8.6,23.37,8.28,24.26z"/>
	<path class="st5" d="M8.28,0.6c0.31,0.92,0.58,1.71,0.85,2.49C8.41,3.45,7.82,3.75,7.2,4.07c-0.46-0.71-0.92-1.4-1.44-2.2
		C6.58,1.45,7.36,1.06,8.28,0.6z"/>
	<path class="st6" d="M3.58,3.64c0.64,0.66,1.21,1.24,1.81,1.85c-0.4,0.52-0.82,1.06-1.3,1.68C3.36,6.73,2.64,6.29,1.82,5.78
		C2.43,5.04,2.99,4.35,3.58,3.64z"/>
	<path class="st7" d="M3.51,21.17c-0.5-0.62-1.05-1.3-1.66-2.06c0.79-0.5,1.5-0.95,2.23-1.41c0.45,0.57,0.88,1.11,1.33,1.67
		C4.79,19.96,4.18,20.53,3.51,21.17z"/>
</g>
</svg>
