<?xml version="1.0" encoding="utf-8"?>
<!-- Generator: Adobe Illustrator 28.0.0, SVG Export Plug-In . SVG Version: 6.00 Build 0)  -->
<svg version="1.1" id="Layer_1" xmlns="http://www.w3.org/2000/svg" xmlns:xlink="http://www.w3.org/1999/xlink" x="0px" y="0px"
	 viewBox="0 0 178.1 177.54" style="enable-background:new 0 0 178.1 177.54;" xml:space="preserve" width="25px" height="25px">
<style type="text/css">
	.st0{fill:#8BC24A;}
	.st1{fill:#44A048;}
	.st2{fill:#AED583;}
	.st3{fill:#9DCC67;}
	.st4{fill:#8BC34A;}
	.st5{fill:#DCECC8;}
	.st6{fill:#C5E0A5;}
	.st7{fill:#8AC249;}
</style>
<g>
	<path class="st0" d="M80.81,18.28c-0.75-5.85-1.48-11.57-2.23-17.38c32.27-4.3,58.34,7.03,78.91,31.11
		c16.79,19.65,23.22,43.06,19.65,68.47c-7.94,56.54-60.97,82.92-98.58,75.98c0.72-5.73,1.45-11.47,2.15-16.95
		c26.36,0.35,48.99-7.44,64.69-29.24c16.97-23.56,19.15-49.19,5.34-74.78C136.08,28.29,111.89,17.07,80.81,18.28z"/>
	<path class="st1" d="M78.86,125.56c-12.04-12.04-24.05-24.05-35.93-35.93c4.32-4.24,8.67-8.5,13.26-12.99
		c6.88,7.1,14.15,14.59,21.34,22c14.67-14.74,28.84-28.98,43.13-43.34c5.1,5.56,9.43,10.28,13.52,14.73
		C116.36,87.93,97.71,106.65,78.86,125.56z"/>
	<path class="st2" d="M0.09,78.64c1.5-6.62,2.84-12.5,4.4-19.35c6.4,2.18,12.07,4.11,17.77,6.05c-1.18,5.28-2.26,10.08-3.45,15.39
		C12.93,80.07,6.97,79.41,0.09,78.64z"/>
	<path class="st3" d="M22.29,111.8c-5.67,1.99-11.24,3.96-17.66,6.21C3.1,111.62,1.64,105.5,0,98.62c6.66-0.7,12.62-1.33,18.75-1.98
		C19.98,101.92,21.09,106.67,22.29,111.8z"/>
	<path class="st4" d="M59.02,172.84c-6.18-3.03-11.9-5.83-17.87-8.76c3.55-5.59,6.73-10.6,10.02-15.78c4.6,2.25,9,4.41,14.05,6.88
		C63.24,160.83,61.25,166.5,59.02,172.84z"/>
	<path class="st5" d="M58.95,4.27c2.22,6.55,4.13,12.19,6.02,17.77c-5.04,2.55-9.27,4.7-13.69,6.94
		c-3.31-5.06-6.53-9.99-10.23-15.66C46.9,10.36,52.4,7.58,58.95,4.27z"/>
	<path class="st6" d="M25.47,25.92c4.56,4.67,8.6,8.8,12.92,13.21c-2.84,3.69-5.84,7.57-9.25,12c-5.17-3.18-10.3-6.33-16.16-9.93
		C17.31,35.91,21.33,30.98,25.47,25.92z"/>
	<path class="st7" d="M24.97,150.79c-3.54-4.4-7.46-9.26-11.79-14.64c5.62-3.55,10.71-6.76,15.88-10.03
		c3.23,4.07,6.29,7.93,9.46,11.93C34.14,142.16,29.75,146.29,24.97,150.79z"/>
</g>
</svg>
