<?xml version="1.0" encoding="utf-8"?>
<!-- Generator: Adobe Illustrator 28.0.0, SVG Export Plug-In . SVG Version: 6.00 Build 0)  -->
<svg version="1.1" id="Layer_1" xmlns="http://www.w3.org/2000/svg" xmlns:xlink="http://www.w3.org/1999/xlink" x="0px" y="0px"
	 viewBox="0 0 25 25" style="enable-background:new 0 0 25 25;" xml:space="preserve" width="25px" height="25px">
<style type="text/css">
	.st0{fill:#F7DF1E;}
</style>
<path class="st0" d="M0,0h25v25H0V0z"/>
<path d="M6.57,20.89l1.91-1.16c0.37,0.65,0.7,1.21,1.51,1.21c0.77,0,1.26-0.3,1.26-1.48v-7.99h2.35v8.02c0,2.43-1.43,3.54-3.51,3.54
	C8.22,23.04,7.13,22.07,6.57,20.89 M14.88,20.64l1.91-1.11c0.5,0.82,1.16,1.43,2.32,1.43c0.97,0,1.59-0.49,1.59-1.16
	c0-0.81-0.64-1.09-1.71-1.56l-0.59-0.25c-1.7-0.72-2.82-1.63-2.82-3.54c0-1.76,1.34-3.1,3.44-3.1c1.49,0,2.57,0.52,3.34,1.88
	l-1.83,1.17c-0.4-0.72-0.84-1.01-1.51-1.01c-0.69,0-1.12,0.44-1.12,1.01c0,0.7,0.44,0.99,1.44,1.43l0.59,0.25
	c2,0.86,3.12,1.73,3.12,3.69c0,2.11-1.66,3.27-3.89,3.27C16.98,23.04,15.57,22,14.88,20.64"/>
</svg>
