<?xml version="1.0" encoding="utf-8"?>
<!-- Generator: Adobe Illustrator 28.0.0, SVG Export Plug-In . SVG Version: 6.00 Build 0)  -->
<svg version="1.1" id="Layer_1" xmlns="http://www.w3.org/2000/svg" xmlns:xlink="http://www.w3.org/1999/xlink" x="0px" y="0px"
	 viewBox="0 0 21 21" style="enable-background:new 0 0 21 21;" xml:space="preserve" width="25px" height="25px">
<style type="text/css">
	.st0{fill:#D1D1D1;}
</style>
<path class="st0" d="M0,0h21v21H0V0z"/>
<path d="M5.52,17.55l1.61-0.97c0.31,0.55,0.59,1.01,1.27,1.01c0.65,0,1.06-0.25,1.06-1.24V9.64h1.97v6.74c0,2.04-1.2,2.97-2.95,2.97
	C6.9,19.35,5.99,18.54,5.52,17.55 M12.5,17.34l1.61-0.93c0.42,0.69,0.97,1.2,1.95,1.2c0.82,0,1.34-0.41,1.34-0.97
	c0-0.68-0.54-0.92-1.44-1.31l-0.49-0.21c-1.42-0.61-2.37-1.37-2.37-2.97c0-1.48,1.13-2.61,2.89-2.61c1.25,0,2.16,0.44,2.81,1.58
	l-1.54,0.99c-0.34-0.61-0.7-0.85-1.27-0.85c-0.58,0-0.94,0.37-0.94,0.85c0,0.59,0.37,0.83,1.21,1.2l0.49,0.21
	c1.68,0.72,2.62,1.45,2.62,3.1c0,1.78-1.4,2.75-3.27,2.75C14.26,19.35,13.08,18.48,12.5,17.34"/>
</svg>
