<?xml version="1.0" encoding="utf-8"?>
<!-- Generator: Adobe Illustrator 28.0.0, SVG Export Plug-In . SVG Version: 6.00 Build 0)  -->
<svg version="1.1" id="Layer_1" xmlns="http://www.w3.org/2000/svg" xmlns:xlink="http://www.w3.org/1999/xlink" x="0px" y="0px"
	 viewBox="0 0 25 25" style="enable-background:new 0 0 25 25;" xml:space="preserve" width="25px" height="25px">
<style type="text/css">
	.st0{fill:url(#SVGID_1_);}
	.st1{fill:url(#SVGID_00000016764738149602486950000009398157073735250612_);}
	.st2{fill:#FFFFFF;}
</style>
<linearGradient id="SVGID_1_" gradientUnits="userSpaceOnUse" x1="-2879.1838" y1="481.4003" x2="-2874.4614" y2="454.6197" gradientTransform="matrix(-1 0 0 -1 -2864.3101 480.509)">
	<stop  offset="0" style="stop-color:#FAAE42"/>
	<stop  offset="1" style="stop-color:#EF3E31"/>
</linearGradient>
<path class="st0" d="M5.6,0h13.8c0.7,0,1.3,0.1,2,0.3c0.9,0.3,1.8,0.9,2.4,1.7c0.6,0.8,1,1.7,1.2,2.7C25,5.1,25,5.4,25,5.8v13.5
	c0,0.4,0,0.9-0.1,1.3c-0.2,1-0.6,1.9-1.3,2.6c-0.6,0.7-1.5,1.3-2.4,1.6C20.6,24.9,20,25,19.4,25c-0.3,0-13.9,0-14.1,0
	c-1-0.1-2-0.4-2.8-0.9c-0.8-0.6-1.5-1.3-1.9-2.2C0.2,21.1,0,20.3,0,19.4V5.6c0-0.8,0.2-1.7,0.5-2.4C1,2.3,1.6,1.5,2.4,1
	c0.8-0.6,1.8-0.9,2.8-1C5.3,0,5.4,0,5.6,0z"/>
<linearGradient id="SVGID_00000154388513048587413970000007039055345195326132_" gradientUnits="userSpaceOnUse" x1="12.7535" y1="765.4092" x2="9.294" y2="785.0291" gradientTransform="matrix(1 0 0 1 0 -765.0048)">
	<stop  offset="0" style="stop-color:#E39F3A"/>
	<stop  offset="1" style="stop-color:#D33929"/>
</linearGradient>
<path style="fill:url(#SVGID_00000154388513048587413970000007039055345195326132_);" d="M21.1,20.4c-0.1-0.1-0.2-0.3-0.3-0.4
	c-0.2-0.3-0.5-0.6-0.8-0.8c-0.4-0.3-0.9-0.4-1.3-0.5c-0.3,0-0.7,0-1,0.2c-0.3,0.1-0.6,0.3-0.9,0.4c-0.3,0.2-0.7,0.4-1,0.5
	c-0.4,0.2-0.9,0.3-1.3,0.4c-0.6,0.1-1.2,0.2-1.7,0.1c-1,0-2.1-0.2-3.1-0.5c-0.9-0.3-1.7-0.6-2.5-1.1c-0.7-0.4-1.3-0.9-1.9-1.4
	c-0.5-0.4-1-0.9-1.4-1.4c-0.3-0.3-0.6-0.7-0.8-1.1c-0.1-0.2-0.2-0.3-0.3-0.5L0,11.8V5.5C0,2.5,2.5,0,5.5,0h4.9l3.7,3.7
	c8.2,5.6,5.6,11.8,5.6,11.8S22,18.1,21.1,20.4z"/>
<path class="st2" d="M14.1,3.7c8.2,5.6,5.6,11.8,5.6,11.8s2.3,2.7,1.4,5c0,0-1-1.6-2.6-1.6c-1.6,0-2.5,1.6-5.6,1.6
	c-7,0-10.3-5.9-10.3-5.9c6.3,4.2,10.6,1.2,10.6,1.2c-2.8-1.7-8.9-9.5-8.9-9.5c5.3,4.5,7.5,5.7,7.5,5.7c-1.4-1.1-5.2-6.6-5.2-6.6
	c3.1,3.1,9.1,7.4,9.1,7.4C17.5,8,14.1,3.7,14.1,3.7z"/>
</svg>
