<?xml version="1.0" encoding="utf-8"?>
<!-- Generator: Adobe Illustrator 28.0.0, SVG Export Plug-In . SVG Version: 6.00 Build 0)  -->
<svg version="1.1" id="Layer_1" xmlns="http://www.w3.org/2000/svg" xmlns:xlink="http://www.w3.org/1999/xlink" x="0px" y="0px"
	 viewBox="0 0 25 24.99" style="enable-background:new 0 0 25 24.99;" xml:space="preserve" width="25px">
<style type="text/css">
	.st0{fill:url(#SVGID_1_);}
	.st1{fill:url(#SVGID_00000176747126299333717460000017400262893358074265_);}
	.st2{fill:#FFFFFF;}
</style>
<linearGradient id="SVGID_1_" gradientUnits="userSpaceOnUse" x1="-2293.1841" y1="-455.3955" x2="-2288.4636" y2="-428.6256" gradientTransform="matrix(-1 0 0 1 -2278.3101 454.504)">
	<stop  offset="0" style="stop-color:#FAAE42"/>
	<stop  offset="1" style="stop-color:#EF3E31"/>
</linearGradient>
<path class="st0" d="M5.55,0H19.4c0.67,0,1.33,0.11,1.96,0.33c0.92,0.33,1.75,0.92,2.37,1.68c0.63,0.76,1.05,1.7,1.2,2.67
	C24.99,5.05,25,5.41,25,5.77v13.5c0,0.43-0.02,0.87-0.11,1.29c-0.2,0.97-0.65,1.87-1.32,2.61c-0.65,0.73-1.51,1.28-2.44,1.57
	c-0.57,0.18-1.15,0.25-1.75,0.25c-0.26,0-13.87,0-14.08-0.01c-1-0.05-1.98-0.37-2.81-0.93c-0.81-0.55-1.47-1.31-1.9-2.19
	c-0.37-0.75-0.56-1.59-0.56-2.43V5.55C0.02,4.72,0.2,3.9,0.56,3.16c0.42-0.88,1.07-1.65,1.88-2.2c0.83-0.57,1.81-0.9,2.8-0.95
	C5.34,0,5.45,0,5.55,0z"/>
<linearGradient id="SVGID_00000123442356131209130830000006957638844788221837_" gradientUnits="userSpaceOnUse" x1="12.7514" y1="26.5853" x2="9.2946" y2="6.9807" gradientTransform="matrix(1 0 0 -1 0 26.9902)">
	<stop  offset="0" style="stop-color:#E39F3A"/>
	<stop  offset="1" style="stop-color:#D33929"/>
</linearGradient>
<path style="fill:url(#SVGID_00000123442356131209130830000006957638844788221837_);" d="M21.09,20.44
	c-0.09-0.14-0.19-0.27-0.29-0.4c-0.24-0.29-0.53-0.55-0.84-0.76c-0.39-0.26-0.85-0.43-1.32-0.45c-0.33-0.02-0.66,0.04-0.98,0.16
	c-0.31,0.11-0.61,0.26-0.91,0.42c-0.34,0.18-0.68,0.35-1.04,0.5c-0.43,0.18-0.88,0.31-1.34,0.41c-0.58,0.11-1.16,0.15-1.74,0.14
	c-1.04-0.02-2.09-0.18-3.08-0.47c-0.88-0.26-1.72-0.62-2.51-1.08c-0.69-0.4-1.34-0.86-1.94-1.38c-0.5-0.43-0.96-0.89-1.39-1.38
	c-0.29-0.34-0.58-0.7-0.84-1.07c-0.11-0.15-0.2-0.3-0.29-0.46L0,11.83v-6.3C0,2.48,2.47,0,5.53,0h4.93l3.65,3.71
	c8.24,5.6,5.57,11.78,5.57,11.78S22.02,18.13,21.09,20.44z"/>
<path class="st2" d="M14.13,3.71c8.24,5.6,5.57,11.78,5.57,11.78s2.34,2.65,1.4,4.96c0,0-0.97-1.62-2.59-1.62
	c-1.56,0-2.48,1.62-5.62,1.62c-7,0-10.31-5.85-10.31-5.85c6.31,4.15,10.61,1.21,10.61,1.21C10.35,14.16,4.3,6.28,4.3,6.28
	c5.26,4.48,7.54,5.66,7.54,5.66c-1.36-1.12-5.16-6.61-5.16-6.61c3.05,3.08,9.1,7.39,9.1,7.39C17.49,7.96,14.13,3.71,14.13,3.71z"/>
</svg>
